<?xml version="1.0" encoding="utf-8"?>
<!-- Generated by IcoMoon.io -->
<!DOCTYPE svg PUBLIC "-//W3C//DTD SVG 1.1//EN" "http://www.w3.org/Graphics/SVG/1.1/DTD/svg11.dtd">
<svg version="1.1" xmlns="http://www.w3.org/2000/svg" xmlns:xlink="http://www.w3.org/1999/xlink" width="32" height="32" viewBox="0 0 32 32">
<g>
</g>
	<path d="M27.44 24.924l-4.918-4.917c0.7-2.272 0.154-4.846-1.644-6.644-2.267-2.267-5.768-2.548-8.342-0.843l3.656 3.655-1.875 1.874-3.655-3.655c-1.705 2.573-1.424 6.075 0.843 8.342 1.798 1.798 4.372 2.345 6.644 1.644l4.917 4.918 0.032-0.032c1.211 0.905 2.929 0.82 4.031-0.28s1.187-2.818 0.28-4.032l0.031-0.030zM12.755 21.487c-1.062-1.062-1.508-2.493-1.381-3.881l2.943 2.944 4.375-4.375-2.944-2.944c1.388-0.127 2.818 0.318 3.881 1.381 1.165 1.165 1.608 2.774 1.342 4.282l-3.934 3.935c-1.509 0.264-3.118-0.179-4.282-1.343zM25.877 27.736c-0.407 0.407-1.007 0.482-1.5 0.249l-0.063 0.063-6.249-6.25 1.874-1.874 6.25 6.249-0.063 0.063c0.232 0.493 0.157 1.093-0.25 1.501zM31.251 16.469l-14.613-14.603c-0.139-0.307-0.444-0.522-0.803-0.522-0.489 0-0.884 0.396-0.884 0.884 0 0.044 0.019 0.083 0.026 0.126l-14.165 14.165 0.198 0.198c-0.117 0.15-0.198 0.331-0.198 0.535 0 0.488 0.395 0.884 0.884 0.884 0.488 0 0.883-0.395 0.884-0.883l2.651-2.651v13.255c0 0.976 0.792 1.767 1.768 1.767h13.895l-1.767-1.767h-11.244c-0.489 0-0.884-0.395-0.884-0.884v-14.138l9.058-9.058 9.5 9.499v7.266l1.768 1.768v-7.266l2.714 2.714 0.068-0.069c0.154 0.262 0.426 0.448 0.753 0.448 0.489 0 0.884-0.396 0.884-0.884 0-0.346-0.203-0.636-0.491-0.782z" fill="#000000" />
</svg>
