<?xml version="1.0" encoding="utf-8"?>
<!-- Generated by IcoMoon.io -->
<!DOCTYPE svg PUBLIC "-//W3C//DTD SVG 1.1//EN" "http://www.w3.org/Graphics/SVG/1.1/DTD/svg11.dtd">
<svg version="1.1" xmlns="http://www.w3.org/2000/svg" xmlns:xlink="http://www.w3.org/1999/xlink" width="32" height="32" viewBox="0 0 32 32">
<g>
</g>
	<path d="M30.749 1.56v-0.046h-3.917c0.001 0.020 0.006 0.039 0.006 0.060 0 0.010-0.003 0.019-0.003 0.029-0.004 0-0.008-0.001-0.012-0.001-0.628 0-1.138 0.502-1.155 1.128-0.022-0.001-0.044-0.005-0.067-0.006v0.12l-0.595 5.071h-23.312c-0.083-0.015-0.167-0.026-0.254-0.026s-0.172 0.011-0.254 0.026h-0.358l0.042 0.090c-0.524 0.222-0.892 0.741-0.892 1.347 0 0.808 0.654 1.375 1.462 1.375 0.054 0 0.104-0.012 0.157-0.017l1.988 6.286c0.788 2.586 1.844 4.358 4.508 4.358h15.34l-0.379 3.23c-0.978 0.082-1.841 0.563-2.426 1.283h-14.394c-0.643-0.791-1.623-1.297-2.723-1.297-1.937 0-3.507 1.571-3.507 3.507 0 1.937 1.57 3.508 3.507 3.508 1.594 0 2.938-1.065 3.364-2.521h13.111c0.427 1.456 1.77 2.521 3.364 2.521 1.937 0 3.507-1.571 3.507-3.508 0-1.034-0.451-1.961-1.163-2.604l2.43-20.735h2.625v-0.069c0.726-0.145 1.272-0.786 1.272-1.554s-0.547-1.409-1.273-1.554zM3.541 29.085c-0.538 0-0.974-0.436-0.974-0.973 0-0.539 0.436-0.975 0.974-0.975s0.974 0.436 0.974 0.975c0 0.538-0.436 0.973-0.974 0.973zM23.381 29.085c-0.539 0-0.975-0.436-0.975-0.973 0-0.539 0.436-0.975 0.975-0.975 0.538 0 0.973 0.436 0.973 0.975 0.001 0.538-0.436 0.973-0.973 0.973zM23.807 18.152h-14.614c-1.233 0-1.764-0.902-2.306-2.24l-1.766-4.796h19.51l-0.824 7.036z" fill="#000000" />
</svg>
