<?xml version="1.0" encoding="utf-8"?>
<!-- Generated by IcoMoon.io -->
<!DOCTYPE svg PUBLIC "-//W3C//DTD SVG 1.1//EN" "http://www.w3.org/Graphics/SVG/1.1/DTD/svg11.dtd">
<svg version="1.1" xmlns="http://www.w3.org/2000/svg" xmlns:xlink="http://www.w3.org/1999/xlink" width="32" height="32" viewBox="0 0 32 32">
<g>
</g>
	<path d="M16.005 0.045c-8.801 0-15.936 7.135-15.936 15.935 0 8.801 7.135 15.936 15.936 15.936 8.801 0 15.935-7.135 15.935-15.936 0.001-8.8-7.135-15.935-15.935-15.935zM15.907 27.233c-6.211 0-11.246-5.035-11.246-11.246s5.035-11.246 11.246-11.246c6.211 0 11.246 5.035 11.246 11.246 0 6.211-5.035 11.246-11.246 11.246zM21.414 16.536h-5.055v-5.101c0-0.53-0.448-0.959-1-0.959s-1 0.429-1 0.959v6.025c0 0.216 0.077 0.414 0.204 0.575 0.166 0.299 0.472 0.502 0.828 0.502h6.025c0.53 0 0.959-0.448 0.959-1-0.001-0.552-0.43-1-0.96-1z" fill="#000000" />
</svg>
