<?xml version="1.0" encoding="utf-8"?>
<!-- Generated by IcoMoon.io -->
<!DOCTYPE svg PUBLIC "-//W3C//DTD SVG 1.1//EN" "http://www.w3.org/Graphics/SVG/1.1/DTD/svg11.dtd">
<svg version="1.1" xmlns="http://www.w3.org/2000/svg" xmlns:xlink="http://www.w3.org/1999/xlink" width="32" height="32" viewBox="0 0 32 32">
<g>
</g>
	<path d="M16.083 0c-8.791 0-15.917 7.126-15.917 15.917 0 8.79 7.126 15.917 15.917 15.917 8.79 0 15.917-7.126 15.917-15.917 0-8.791-7.126-15.917-15.917-15.917zM24.043 22.74c0.314 0.314 0.314 0.822 0 1.137s-0.823 0.314-1.137 0l-6.823-6.823-6.823 6.824c-0.314 0.314-0.823 0.314-1.137 0s-0.314-0.823 0-1.137l6.823-6.824-6.824-6.823c-0.314-0.314-0.314-0.823 0-1.137s0.823-0.314 1.137 0l6.824 6.823 6.823-6.823c0.314-0.314 0.822-0.314 1.137 0s0.314 0.823 0 1.137l-6.823 6.823 6.823 6.823z" fill="#000000" />
</svg>
