<?xml version="1.0" encoding="utf-8"?>
<!-- Generated by IcoMoon.io -->
<!DOCTYPE svg PUBLIC "-//W3C//DTD SVG 1.1//EN" "http://www.w3.org/Graphics/SVG/1.1/DTD/svg11.dtd">
<svg version="1.1" xmlns="http://www.w3.org/2000/svg" xmlns:xlink="http://www.w3.org/1999/xlink" width="32" height="32" viewBox="0 0 32 32">
<g>
</g>
	<path d="M24.568 13.856c-0.070-0.070-0.151-0.123-0.227-0.185l-12.772-12.772c-1.168-1.168-3.061-1.168-4.228 0-1.167 1.168-1.167 3.060 0 4.228l10.863 10.863-10.863 10.863c-1.167 1.168-1.167 3.061 0 4.228 1.168 1.167 3.061 1.167 4.228 0l12.771-12.77c0.076-0.062 0.157-0.115 0.228-0.186 0.589-0.589 0.879-1.363 0.874-2.135 0.005-0.772-0.285-1.546-0.874-2.135z" fill="#000000" />
</svg>
