<?xml version="1.0" encoding="utf-8"?>
<!-- Generated by IcoMoon.io -->
<!DOCTYPE svg PUBLIC "-//W3C//DTD SVG 1.1//EN" "http://www.w3.org/Graphics/SVG/1.1/DTD/svg11.dtd">
<svg version="1.1" xmlns="http://www.w3.org/2000/svg" xmlns:xlink="http://www.w3.org/1999/xlink" width="32" height="32" viewBox="0 0 32 32">
<g>
</g>
	<path d="M18.667 12.571l10.8 0.009c0.134 0.034 0.287 0.013 0.441-0.035 0.356-0.064 0.643-0.301 0.761-0.633 0.173-0.327 0.173-0.679-0.033-0.885l-4.531-4.544c-0.276-0.276-0.817-0.185-1.209 0.206-0.391 0.392-0.483 0.933-0.206 1.209l2.67 2.679-8.694-0.008c-0.553 0-1.001 0.447-1.001 1.001 0 0.553 0.448 1.001 1.001 1.001zM24.201 18.613c-2.455 0-4.592 1.356-5.709 3.358-3.679-1.781-6.601-4.874-8.152-8.676 0.047-0.047 0.076-0.106 0.113-0.161 2.45-0.943 4.196-3.303 4.196-6.084 0-3.61-2.926-6.536-6.536-6.536-3.265 0-5.963 2.397-6.45 5.525h-0.033c-0.006 0.096-0.005 0.192-0.010 0.287-0.026 0.238-0.042 0.48-0.042 0.724 0 0.068 0.008 0.136 0.010 0.204-0.001 0.1-0.010 0.198-0.010 0.299 0 12.269 9.158 22.391 21.010 23.923 0.517 0.132 1.056 0.209 1.614 0.209 3.61 0 6.536-2.926 6.536-6.536s-2.926-6.536-6.536-6.536zM24.201 29.673c-0.019 0-0.037-0.006-0.056-0.006l-0.001 0.006c-2.414-0.191-4.308-0.751-5.59-1.254 0.012 0.021 0.021 0.043 0.033 0.063-6.651-2.265-11.868-7.607-13.971-14.332-0.473-1.166-1.006-2.997-1.028-5.349l0.347-0.019c-0.221-0.533-0.347-1.118-0.347-1.732 0-2.499 2.026-4.525 4.525-4.525s4.525 2.026 4.525 4.525c0 2.376-1.838 4.303-4.166 4.489l0.144 1.559-0.445 0.485c0.162-0.002 0.323-0.012 0.483-0.024 1.589 4.502 4.903 8.182 9.151 10.251-0.014 0.066-0.020 0.137-0.032 0.204l0.975 0.327c0.106 0.044 0.209 0.093 0.319 0.107l0.591 0.198 0.068 0.010c0.013-0.123 0.049-0.236 0.072-0.356 0.203-0.105 0.39-0.246 0.517-0.459 0.207-0.347 0.219-0.746 0.097-1.101 0.796-1.265 2.182-2.116 3.789-2.116 2.499 0 4.525 2.026 4.525 4.525s-2.025 4.526-4.524 4.526z" fill="#000000" />
</svg>
