<?xml version="1.0" encoding="utf-8"?>
<!-- Generated by IcoMoon.io -->
<!DOCTYPE svg PUBLIC "-//W3C//DTD SVG 1.1//EN" "http://www.w3.org/Graphics/SVG/1.1/DTD/svg11.dtd">
<svg version="1.1" xmlns="http://www.w3.org/2000/svg" xmlns:xlink="http://www.w3.org/1999/xlink" width="32" height="32" viewBox="0 0 32 32">
<g>
</g>
	<path d="M7.42 19.218c0 0.593 0.481 1.072 1.072 1.072h16.088v-2.145h-16.088c-0.592 0-1.072 0.479-1.072 1.072zM29.618 9.565l-9.328-9.328v-0.325h-15.015c-1.184 0-2.145 0.961-2.145 2.145v26.813c0 1.184 0.961 2.145 2.145 2.145h22.523c1.184 0 2.145-0.961 2.145-2.145v-19.306h-0.325zM20.29 3.271l6.294 6.294h-5.221c-0.593 0-1.072-0.479-1.072-1.072v-5.221zM27.798 27.798c0 0.593-0.479 1.072-1.072 1.072h-20.378c-0.592 0-1.072-0.479-1.072-1.072v-24.668c0-0.592 0.481-1.072 1.072-1.072h11.798v7.508c0 1.184 0.961 2.145 2.145 2.145h7.508v16.088zM7.42 14.928c0 0.593 0.481 1.072 1.072 1.072h16.088v-2.145h-16.088c-0.592 0-1.072 0.479-1.072 1.072zM7.42 23.508c0 0.593 0.481 1.072 1.072 1.072h16.088v-2.145h-16.088c-0.592 0-1.072 0.479-1.072 1.072z" fill="#000000" />
</svg>
