<?xml version="1.0" encoding="utf-8"?>
<!-- Generated by IcoMoon.io -->
<!DOCTYPE svg PUBLIC "-//W3C//DTD SVG 1.1//EN" "http://www.w3.org/Graphics/SVG/1.1/DTD/svg11.dtd">
<svg version="1.1" xmlns="http://www.w3.org/2000/svg" xmlns:xlink="http://www.w3.org/1999/xlink" width="32" height="32" viewBox="0 0 32 32">
<g>
</g>
	<path d="M16 0.036c-8.797 0-15.955 7.157-15.955 15.955s7.157 15.955 15.955 15.955 15.955-7.156 15.955-15.954c0-8.798-7.157-15.955-15.955-15.955zM17.917 28.301l-1.83-4.493-1.9 4.509c-5.392-0.791-9.664-5.036-10.497-10.414l4.514-1.952-4.503-1.946c0.863-5.359 5.144-9.577 10.533-10.346l1.852 4.283 1.784-4.268c5.421 0.82 9.699 5.132 10.466 10.57l-4.017 1.707 4.029 1.713c-0.735 5.457-5.006 9.796-10.43 10.638zM16.072 10.684c-2.942 0-5.327 2.385-5.327 5.327s2.385 5.327 5.327 5.327c2.942 0 5.327-2.385 5.327-5.327 0-2.943-2.385-5.327-5.327-5.327z" fill="#000000" />
</svg>
