<?xml version="1.0" encoding="utf-8"?>
<!-- Generated by IcoMoon.io -->
<!DOCTYPE svg PUBLIC "-//W3C//DTD SVG 1.1//EN" "http://www.w3.org/Graphics/SVG/1.1/DTD/svg11.dtd">
<svg version="1.1" xmlns="http://www.w3.org/2000/svg" xmlns:xlink="http://www.w3.org/1999/xlink" width="32" height="32" viewBox="0 0 32 32">
<g>
</g>
	<path d="M31.941 17.523l-0.001-3.069-0.002-0.002c-0.007-1.006-0.823-1.82-1.83-1.82-0.051 0-0.098 0.011-0.148 0.015l-27.957-0.002c-0.042-0.003-0.081-0.013-0.124-0.013-1.012 0-1.832 0.82-1.832 1.832 0 0.079 0.013 0.15 0.023 0.223v2.621c-0.010 0.073-0.023 0.144-0.023 0.223 0 1.012 0.82 1.832 1.832 1.832 0.12 0 0.236-0.013 0.349-0.035l27.572 0.004c0.1 0.017 0.203 0.031 0.308 0.031 1.012 0 1.832-0.82 1.832-1.832 0-0.003-0.001-0.004-0.001-0.007l0.002-0.002z" fill="#000000" />
</svg>
