<?xml version="1.0" encoding="utf-8"?>
<!-- Generated by IcoMoon.io -->
<!DOCTYPE svg PUBLIC "-//W3C//DTD SVG 1.1//EN" "http://www.w3.org/Graphics/SVG/1.1/DTD/svg11.dtd">
<svg version="1.1" xmlns="http://www.w3.org/2000/svg" xmlns:xlink="http://www.w3.org/1999/xlink" width="32" height="32" viewBox="0 0 32 32">
<g>
</g>
	<path d="M24.192 17.067c-3.518 0-6.371 2.808-6.371 6.272s2.853 6.272 6.371 6.272 6.371-2.808 6.371-6.272-2.853-6.272-6.371-6.272zM24.192 27.819c-2.514 0-4.551-2.006-4.551-4.48 0-0.952 0.304-1.833 0.818-2.559l6.332 6.233c-0.736 0.507-1.632 0.806-2.598 0.806zM28.046 25.715l-6.268-6.169c0.7-0.433 1.526-0.687 2.413-0.687 2.514 0 4.551 2.006 4.551 4.48 0 0.874-0.258 1.686-0.697 2.376zM29.653 2.731h-28.217c-1.006 0-1.821 0.802-1.821 1.792v20.608c0 0.989 0.815 1.792 1.821 1.792h15.426c-0.285-0.564-0.507-1.163-0.652-1.792h-10.179l10.519-10.354c0.356-0.35 0.932-0.35 1.288 0l1.856 1.827c0.532-0.345 1.109-0.625 1.719-0.842l-2.931-2.886c-0.711-0.7-1.863-0.7-2.574 0l-1.898 1.869-5.539-5.452c-0.711-0.7-1.864-0.7-2.574 0l-4.458 4.388v-8.262c0-0.495 0.408-0.896 0.91-0.896h26.397c0.5 0 0.908 0.401 0.908 0.896v11.921c0.741 0.654 1.361 1.436 1.821 2.316v-15.133c0-0.99-0.815-1.792-1.821-1.792zM6.538 11.192c0.356-0.35 0.932-0.35 1.287 0l4.896 4.819-9.265 9.12h-1.11c-0.502 0-0.91-0.401-0.91-0.896v-8.021l5.102-5.022zM26.923 10.347c0-1.732-1.426-3.136-3.186-3.136-1.759 0-3.185 1.404-3.185 3.136s1.426 3.136 3.185 3.136c1.76 0 3.186-1.404 3.186-3.136zM23.737 11.691c-0.754 0-1.365-0.601-1.365-1.344s0.612-1.344 1.365-1.344 1.365 0.601 1.365 1.344-0.611 1.344-1.365 1.344z" fill="#000000" />
</svg>
