<?xml version="1.0" encoding="utf-8"?>
<!-- Generated by IcoMoon.io -->
<!DOCTYPE svg PUBLIC "-//W3C//DTD SVG 1.1//EN" "http://www.w3.org/Graphics/SVG/1.1/DTD/svg11.dtd">
<svg version="1.1" xmlns="http://www.w3.org/2000/svg" xmlns:xlink="http://www.w3.org/1999/xlink" width="32" height="32" viewBox="0 0 32 32">
<g>
</g>
	<path d="M24.303 6.98c-1.774 0-3.209 1.437-3.209 3.209 0 1.773 1.436 3.209 3.209 3.209 1.772 0 3.209-1.436 3.209-3.209 0-1.772-1.437-3.209-3.209-3.209zM24.303 11.564c-0.76 0-1.376-0.615-1.376-1.376 0-0.759 0.615-1.376 1.376-1.376 0.758 0 1.375 0.616 1.375 1.376 0 0.761-0.616 1.376-1.375 1.376zM30.263 2.396h-28.426c-1.012 0-1.834 0.821-1.834 1.834v21.090c0 1.012 0.821 1.835 1.834 1.835h10.010c-0.366-0.579-0.617-1.193-0.742-1.835h-4.639l10.597-10.596c0.358-0.358 0.939-0.358 1.297 0l2.432 2.432c0.55-0.053 1.107-0.089 1.677-0.089 0.289 0 0.573 0.014 0.857 0.028l-4.317-4.317c-0.717-0.716-1.878-0.716-2.594 0l-1.913 1.913-5.58-5.581c-0.717-0.716-1.877-0.716-2.594 0l-4.491 4.491v-8.454c0-0.507 0.411-0.918 0.917-0.918h26.592c0.507 0 0.918 0.411 0.918 0.918v13.888c0.697 0.414 1.315 0.882 1.834 1.396v-16.202c-0.002-1.012-0.823-1.834-1.835-1.834zM6.976 11.054c0.358-0.358 0.939-0.358 1.296 0l4.932 4.932-9.333 9.333h-1.118c-0.506 0-0.917-0.41-0.917-0.917v-8.208l5.139-5.14z" fill="#000000" />
	<path d="M32.122 24.029c-0.037-0.090-0.081-0.177-0.121-0.265 0-0.003 0.001-0.004 0.001-0.005-0.341-0.907-0.884-1.739-1.565-2.482 0.001 0.026 0.006 0.051 0.006 0.076 0 0.061-0.010 0.119-0.012 0.18-1.844-1.828-4.71-3.006-7.939-3.006-3.293 0-6.211 1.227-8.049 3.118-0.005-0.098-0.018-0.192-0.018-0.291 0-0.025 0.004-0.050 0.005-0.076-0.681 0.743-1.224 1.575-1.565 2.482 0.018 0.046 0.041 0.092 0.059 0.138-0.018 0.044-0.042 0.087-0.059 0.131 0.344 0.866 0.89 1.658 1.576 2.366-0.001-0.025-0.005-0.048-0.005-0.072 0-0.020 0.003-0.039 0.004-0.057 1.826 1.981 4.724 3.266 7.995 3.266 3.336 0 6.287-1.335 8.105-3.384 0.003 0.059 0.012 0.117 0.012 0.175 0 0.024-0.004 0.047-0.005 0.072 0.685-0.707 1.232-1.499 1.576-2.365zM19.476 27.148c-1.931-0.604-3.498-1.763-4.346-3.24 0.86-1.434 2.47-2.556 4.453-3.128-0.752 0.831-1.215 1.978-1.215 3.25 0 1.206 0.422 2.299 1.108 3.118zM22.495 26.78c-1.266 0-2.293-1.232-2.293-2.75s1.027-2.75 2.293-2.75c1.266 0 2.292 1.232 2.292 2.75s-1.027 2.75-2.292 2.75zM25.551 27.1c0.662-0.813 1.068-1.888 1.068-3.071 0-1.27-0.466-2.419-1.216-3.25 1.939 0.559 3.52 1.647 4.394 3.036-0.813 1.483-2.347 2.655-4.246 3.286z" fill="#000000" />
</svg>
