<?xml version="1.0" encoding="utf-8"?>
<!-- Generated by IcoMoon.io -->
<!DOCTYPE svg PUBLIC "-//W3C//DTD SVG 1.1//EN" "http://www.w3.org/Graphics/SVG/1.1/DTD/svg11.dtd">
<svg version="1.1" xmlns="http://www.w3.org/2000/svg" xmlns:xlink="http://www.w3.org/1999/xlink" width="32" height="32" viewBox="0 0 32 32">
<g>
</g>
	<path d="M31.879 17.668l-0.001-3.214-0.002-0.002c-0.007-1.007-0.824-1.821-1.832-1.821-0.050 0-0.097 0.011-0.146 0.015h-10.577v-10.682c0.002-0.031 0.010-0.061 0.010-0.093 0-1.013-0.821-1.834-1.834-1.834-0.065 0-0.12 0.013-0.179 0.019h-2.748c-0.063-0.006-0.125-0.019-0.191-0.019-1.013 0-1.834 0.821-1.834 1.834 0 0.060 0.012 0.116 0.017 0.173l-0.001 10.602-10.513-0.001c-0.042-0.003-0.081-0.012-0.124-0.012-1.012 0-1.834 0.821-1.834 1.834 0 0.079 0.013 0.155 0.023 0.231v2.762c-0.010 0.072-0.023 0.141-0.023 0.22 0 1.013 0.821 1.834 1.834 1.834 0.12 0 0.236-0.013 0.349-0.035l10.288 0.002 0.002 10.459c-0.007 0.065-0.019 0.127-0.019 0.193 0 1.013 0.821 1.834 1.834 1.834 0.153 0 0.3-0.024 0.442-0.060l2.271 0.001c0.122 0.035 0.253 0.059 0.405 0.059 1.012 0 1.834-0.821 1.834-1.834 0-0.025-0.006-0.048-0.007-0.072l-0.002-10.58 10.415 0.002c0.1 0.017 0.203 0.031 0.308 0.031 1.013 0 1.834-0.821 1.834-1.834 0-0.003-0.001-0.004-0.001-0.007l0.001-0.002z" fill="#000000" />
</svg>
