<?xml version="1.0" encoding="utf-8"?>
<!-- Generated by IcoMoon.io -->
<!DOCTYPE svg PUBLIC "-//W3C//DTD SVG 1.1//EN" "http://www.w3.org/Graphics/SVG/1.1/DTD/svg11.dtd">
<svg version="1.1" xmlns="http://www.w3.org/2000/svg" xmlns:xlink="http://www.w3.org/1999/xlink" width="32" height="32" viewBox="0 0 32 32">
<g>
</g>
	<path d="M26.985 24c-0.515-1.021-3.015-2.049-5.042-2.775-2.026-0.726-3.248-1.887-3.248-2.54s0.522-2.831 1.361-3.049c0.839-0.218 1.328-2.685 1.328-3.411s-0.419-0.508-0.419-0.508 0.557-2.049-0.070-4.427c-0.827-3.137-4.276-3.324-4.859-3.333v-0.001c0 0-0.016 0-0.045 0-0.031 0-0.047 0-0.047 0v0.001c-0.57 0.010-3.891 0.202-4.821 3.333-0.7 2.358-0.070 4.427-0.070 4.427s-0.419-0.218-0.419 0.508 0.489 3.193 1.328 3.411c0.838 0.218 1.29 2.396 1.29 3.049s-1.15 1.814-3.177 2.54-4.082 1.687-5.042 2.776c-0.721 0.817-0.549 4.044-0.549 4.044h23.050c0 0-0.057-3.070-0.548-4.044z" fill="#000000" />
</svg>
