<?xml version="1.0" encoding="utf-8"?>
<!-- Generated by IcoMoon.io -->
<!DOCTYPE svg PUBLIC "-//W3C//DTD SVG 1.1//EN" "http://www.w3.org/Graphics/SVG/1.1/DTD/svg11.dtd">
<svg version="1.1" xmlns="http://www.w3.org/2000/svg" xmlns:xlink="http://www.w3.org/1999/xlink" width="32" height="32" viewBox="0 0 32 32">
<g>
</g>
	<path d="M31.078 31.055c-1.17 1.171-3.068 1.171-4.237 0l-5.289-5.289c-2.175 1.394-4.745 2.226-7.52 2.226-7.723 0-13.984-6.26-13.984-13.984s6.261-13.984 13.984-13.984c7.724 0 13.984 6.261 13.984 13.984 0 2.775-0.832 5.345-2.226 7.52l5.289 5.289c1.17 1.171 1.17 3.068-0.001 4.238zM14.032 4.019c-5.517 0-9.988 4.472-9.988 9.988s4.472 9.988 9.988 9.988c5.517 0 9.988-4.472 9.988-9.988s-4.472-9.988-9.988-9.988z" fill="#000000" />
</svg>
